<svg xmlns="http://www.w3.org/2000/svg" width="1024" height="571" viewBox="0 0 1024 571" version="1.1">
	<path d="M 680.070 258.638 C 677.058 262.468, 675 270.376, 675 278.126 C 675 286.304, 677.571 290.333, 682.788 290.333 C 691.030 290.333, 692.690 280.495, 687.316 263.500 C 684.732 255.326, 683.386 254.423, 680.070 258.638 M 589.897 273.028 C 583.477 279.879, 578.530 288.541, 577.529 294.683 C 576.337 301.992, 582.046 311.556, 587.168 310.830 C 591.944 310.154, 600 288.238, 600 275.922 C 600 264.951, 598.001 264.378, 589.897 273.028 M 288.680 281.969 C 285.738 285.465, 283.465 291.982, 282.041 301 C 280.677 309.641, 280.732 315.717, 282.183 316.613 C 283.766 317.592, 291.163 309.339, 294.156 303.254 C 297.160 297.148, 297.458 285.875, 294.727 281.706 C 292.484 278.283, 291.755 278.314, 288.680 281.969 M 477.035 328.934 C 475.565 331.682, 475.739 335.669, 478 351 C 479.095 358.425, 479.983 366.300, 479.973 368.500 C 479.950 373.933, 477.081 379.848, 471.857 385.234 C 468.039 389.171, 466.077 390.194, 456 393.505 C 442.772 397.852, 439 400.080, 439 403.545 C 439 407.295, 443.293 409.509, 450.456 409.453 C 458.917 409.387, 464.676 406.135, 474.541 395.853 C 480.947 389.176, 483.012 386.246, 484.831 381.250 C 486.177 377.556, 489.330 372.240, 492.542 368.250 C 495.559 364.502, 498.261 360.012, 498.617 358.154 C 499.399 354.076, 497.811 348.398, 493.737 340.699 C 487.816 329.512, 479.762 323.838, 477.035 328.934 M 389.964 344.349 C 388.862 346.839, 387.116 353.562, 386.083 359.289 C 384.039 370.626, 382.628 374.076, 377.774 379.605 C 373.418 384.565, 368.524 387.480, 356.639 392.191 C 351.079 394.395, 345.261 397.102, 343.710 398.207 C 339.954 400.881, 340.443 403.953, 345 406.311 C 353.066 410.486, 367.671 405.367, 377.232 395.015 C 387.716 383.664, 392.145 377.928, 394.798 372.267 C 397.170 367.205, 397.500 365.277, 397.500 356.500 C 397.500 341.612, 393.808 335.659, 389.964 344.349 M 254.704 358.094 C 237.070 376.497, 229.341 382.431, 212.474 390.514 C 205.309 393.947, 198.846 397.480, 198.112 398.365 C 195.945 400.976, 197.578 404.926, 201.503 406.566 C 205.567 408.264, 214.904 408.428, 221.911 406.926 C 232.289 404.700, 245.453 393.813, 257.849 377.203 C 266.802 365.205, 267.508 363.749, 269.559 353.030 C 271.248 344.201, 271.311 343, 270.083 343 C 269.579 343, 262.658 349.792, 254.704 358.094 M 658.741 353.429 C 656.673 354.167, 654.241 355.385, 653.336 356.135 C 651.142 357.955, 649 363.246, 649 366.845 C 649 371.706, 650.555 372.194, 663.164 371.292 C 683.616 369.829, 699.787 370.260, 706.284 372.443 L 712.068 374.387 714.609 371.846 C 719.906 366.548, 718.621 355.993, 712.360 353.377 C 707.740 351.447, 664.177 351.489, 658.741 353.429 M 592.741 383.097 C 587.923 385.335, 578.483 388.522, 571.762 390.179 C 556.895 393.846, 552 396.121, 552 399.365 C 552 404.782, 558.875 406.869, 569.390 404.644 C 577.095 403.013, 579.494 403.424, 592.500 408.602 C 598.545 411.008, 600.933 411.396, 610 411.444 C 619.520 411.495, 621.029 411.240, 626.161 408.720 C 634.714 404.520, 642.332 394.881, 639.377 391.998 C 638.891 391.524, 635.148 391.631, 630.980 392.238 C 619.665 393.884, 618.883 393.535, 609.391 382.586 C 607.428 380.321, 605.401 379.005, 603.891 379.014 C 602.576 379.021, 597.558 380.859, 592.741 383.097 M 772 383.099 C 770.625 383.658, 768.307 385.256, 766.848 386.650 C 765.390 388.045, 760.521 390.646, 756.028 392.430 C 743.194 397.529, 741.006 400.750, 748.003 404.248 C 752.959 406.726, 759.540 406.436, 775.546 403.034 C 792.772 399.372, 794 399.020, 794 397.736 C 794 395.950, 786.913 387.969, 783.129 385.495 C 778.583 382.522, 775.209 381.796, 772 383.099 M 814.500 393.500 C 813.950 393.689, 811.460 394.116, 808.967 394.450 C 806.475 394.784, 802.930 395.973, 801.090 397.091 L 797.746 399.125 800.557 402.060 C 804.011 405.665, 811.031 408.372, 822.653 410.580 C 829.789 411.936, 838.268 412.284, 866.500 412.380 C 900.636 412.497, 901.665 412.443, 908.191 410.188 C 916.691 407.251, 924.066 401.093, 922.393 398.329 C 921.382 396.658, 918.966 396.443, 894.393 395.837 C 879.602 395.473, 860.975 394.692, 853 394.102 C 839.380 393.095, 816.719 392.741, 814.500 393.500" stroke="none" fill="#f3f3f3" fill-rule="evenodd"/>
</svg>